Simulation
nRows=46
nColumns=15
endheader
time  TH_x TH_y TH_z SC_y  SC_z  SC_x  AC_y  AC_z  AC_x  GH_y  GH_z  GH_yy  EL_x  PS_y
8.073123595505619  0.000000  0.000000  0.000000  -24.002800321330447  5.890088409196882  3.825161105457011  59.698031426381796  4.695976144256935  4.784126626569893  -85.45229120122588  3.6412823508399756  140.23548237446994  16.770953048715892  120.000000
8.113288389513109  0.000000  0.000000  0.000000  -23.744433415587203  5.88778902942766  3.606751887198295  59.75855396588976  4.28081769253076  4.954057035885273  -67.80295854633995  3.441073981704325  122.07493872990419  16.283659970299706  120.000000
8.153453183520599  0.000000  0.000000  0.000000  -23.46161450897991  5.899996916320675  3.407271548746837  59.83533596857166  3.929539780700312  5.158387816899064  -47.70465428778541  3.5338584722125264  101.27677999473268  15.738940068464075  120.000000
8.19361797752809  0.000000  0.000000  0.000000  -23.15775539465904  5.940824765556713  3.251799480617059  59.933868757128074  3.669495341293917  5.396796741494087  -28.274038643825385  4.032581221050204  80.95610694636805  15.15661838463325  120.000000
8.23378277153558  0.000000  0.000000  0.000000  -22.840663795699466  6.024553978498199  3.162899973443853  60.05812904250407  3.522776870920695  5.667576029875051  -12.492682154732949  4.9637812071276946  64.0972481564354  14.559546601774723  120.000000
8.273947565543072  0.000000  0.000000  0.000000  -22.521990273139128  6.162733391587759  3.158547557002394  60.209543106649505  3.5038469846999227  5.968547318400822  -0.984359144251252  6.285106811543958  51.33199297573735  13.97066166035798  120.000000
8.314112359550561  0.000000  0.000000  0.000000  -22.21518340753977  6.361826312793293  3.2495689463388073  60.38847833869916  3.6177066632980313  6.29922676922134  7.084615329683574  7.940079311519475  41.841322367455454  13.410618867845148  120.000000
8.354277153558053  0.000000  0.000000  0.000000  -21.93320869771978  6.622297458636495  3.439703143337706  60.59488499570053  3.858741309312011  6.6614314188780455  12.72650838145874  9.879743528080013  34.63479590022577  12.89581203007654  120.000000
8.394441947565543  0.000000  0.000000  0.000000  -21.687193305533075  6.939701511143146  3.727819499110527  60.82746947890763  4.212116489614003  7.057989614075445  16.7064812487554  12.062295714672683  28.975282499405896  12.436858642903745  120.000000
8.434606741573035  0.000000  0.000000  0.000000  -21.48582601971929  7.307249613204021  4.109795410332309  61.08364872984762  4.657311446937249  7.491101966184994  19.53679100073205  14.449133684418115  24.382655009271947  12.037696785362009  120.000000
8.474771535580524  0.000000  0.000000  0.000000  -21.33442934757735  7.71660996410909  4.579712438752361  61.359759929042774  5.171412643248202  7.96103987874407  21.55340078053765  17.00270581681945  20.55423652255055  11.696513220900394  120.000000
8.514936329588014  0.000000  0.000000  0.000000  -21.23493527537093  8.158772532890392  5.130810920626695  61.65149514676081  5.730877720300665  8.467440708575921  22.98324916794084  19.685490249307158  17.295074179183292  11.407942353717166  120.000000
8.555101123595506  0.000000  0.000000  0.000000  -21.186809430501096  8.624437003782731  5.7558768532354385  61.95436054828356  6.312775892216078  9.009503147568374  23.98574017479131  22.460829042922438  14.474210840971464  11.165381927211882  120.000000
8.595265917602996  0.000000  0.000000  0.000000  -21.18790982535147  9.104065715665572  6.447397284409413  62.263643331618994  6.896570521554257  9.584416374084626  24.673447378107518  25.293898779786883  12.002177094810722  10.962385525303425  120.000000
8.635430711610487  0.000000  0.000000  0.000000  -21.23579153426531  9.588935580136988  7.197764933451302  62.57395681793215  7.464817050751129  10.18685236475688  25.125757641990436  28.152106136387207  9.816197917911314  10.793025581118746  120.000000
8.675595505617977  0.000000  0.000000  0.000000  -21.32919949020772  10.071571520648801  7.9989600582286915  62.87888051678481  8.002993836271507  10.809064695884514  25.397496017640645  31.004705392837288  7.871419540711802  10.652514959488018  120.000000
8.715760299625469  0.000000  0.000000  0.000000  -21.467973492128948  10.54583440995295  8.842155211519366  63.17076117843033  8.499339670940406  11.441260238964068  25.52680881708316  33.82259530189388  6.1339708255488725  10.537054975980944  120.000000
8.755925093632959  0.000000  0.000000  0.000000  -21.651530112123407  11.006604973579286  9.717920977612883  63.44202093084282  8.945444128896455  12.072515779376259  25.54131426234098  36.57902638068646  4.575971454993413  10.443628450874987  120.000000
8.79608988764045  0.000000  0.000000  0.000000  -21.877663126938447  11.449581622144034  10.616361563406047  63.68649988606632  9.336360283108872  12.692131947703746  25.46234328266898  39.24988736530349  3.1729675854536077  10.370257869383694  120.000000
8.83625468164794  0.000000  0.000000  0.000000  -22.14223146894752  11.871096346300968  11.526776326945805  63.8998778414012  9.669991314646095  13.290230874354402  25.307203274099095  41.81352267096305  1.902991142842097  10.315780057372471  120.000000
8.87641947565543  0.000000  0.000000  0.000000  -22.43959304998365  12.267976423855707  12.437507442349673  64.07948648025223  9.94660398351084  13.858034451651742  25.090113591910594  44.25055705467457  0.7469137091726735  10.279438394155305  120.000000
8.916584269662922  0.000000  0.000000  0.000000  -22.763154726583767  12.637683990589997  13.336379642970426  64.22422284961365  10.16864280726521  14.388158836412064  24.82353527917662  46.54428302658172  -0.31158711413886286  10.26031433387963  120.000000
8.956749063670411  0.000000  0.000000  0.000000  -23.10568683137094  12.978321739211816  14.211541669283967  64.33444322809983  10.340773270523638  14.874984611949378  24.519227722529163  48.681275774399694  -1.2857678592491866  10.256925275479146  120.000000
8.996913857677903  0.000000  0.000000  0.000000  -23.459991282512714  13.288677679160692  15.05242976199353  64.41154188008187  10.469736609126196  15.31496306301914  24.188920815243222  50.65186325595511  -2.1853829577807824  10.266909956541083  120.000000
9.037078651685393  0.000000  0.000000  0.000000  -23.819576378594448  13.568139730356032  15.850513701381564  64.45745189822911  10.56397367305737  15.706578247509714  23.844451195438214  52.45030412582324  -3.0162939729673814  10.286816959762026  120.000000
9.077243445692885  0.000000  0.000000  0.000000  -24.179007572877836  13.816504681705934  16.599618372797565  64.4741489381321  10.632934038045498  16.050115458902965  23.49773406207035  54.07445531502151  -3.7805169003894763  10.312228875934796  120.000000
9.117408239700374  0.000000  0.000000  0.000000  -24.533858510994246  14.03378606721819  17.295744054069978  64.46355448909904  10.68617306639904  16.34719669558521  23.16069292796419  55.524991559613994  -4.476994243459549  10.338241574552919  120.000000
9.157573033707866  0.000000  0.000000  0.000000  -24.88023578473938  14.2200193661553  17.936488402402023  64.42755171644258  10.732430952657488  16.600275845610714  22.845081207767286  56.80421265608864  -5.102739770802667  10.360168334462378  120.000000
9.197737827715356  0.000000  0.000000  0.000000  -25.214183597164176  14.375280166451223  18.52028165055854  64.36832320334065  10.778826300987713  16.811965130182948  22.562247551722855  57.914663188898494  -5.654241521016959  10.37429004859155  120.000000
9.237902621722846  0.000000  0.000000  0.000000  -25.530882051991195  14.499550824048775  19.04550346609662  64.28878578713265  10.83020309205042  16.984517521265378  22.323098784222672  58.857790533605446  -6.128812681686614  10.378521621810398  120.000000
9.278067415730337  0.000000  0.000000  0.000000  -25.82390854410291  14.592601016984105  19.509774659469063  64.19296616249778  10.888711799566506  17.119584666900202  22.13819021463257  59.63291490530866  -6.525669367306424  10.372722038136244  120.000000
9.318232209737827  0.000000  0.000000  0.000000  -26.085122375221776  14.654197580445299  19.90967569793151  64.08606930489223  10.953886559632444  17.21796615182109  22.01760246501942  60.23670510991872  -6.846234626513945  10.358461896619595  120.000000
9.358397003745319  0.000000  0.000000  0.000000  -26.30508450897328  14.684245472793004  20.240812460313  63.97415639302408  11.02310382255755  17.279399956511803  21.9705457005925  60.663202345472804  -7.093759966237331  10.338220422272627  120.000000
9.398561797752809  0.000000  0.000000  0.000000  -26.473821137475824  14.682863128042804  20.49804960100269  63.86352484060574  11.092217897598383  17.302501087279495  22.00490335866441  60.904200351887276  -7.272491364846411  10.31434151313433  120.000000
9.4387265917603  0.000000  0.000000  0.000000  -26.58173421221699  14.65042984829979  20.675761683969125  63.760027969959246  11.156254961274373  17.28479114368259  22.126807125528156  60.949855380651364  -7.386665161526187  10.288055691608713  120.000000
9.47889138576779  0.000000  0.000000  0.000000  -26.620437258789337  14.587529910415416  20.767998432147714  63.668435541741935  11.20999787445295  17.22291678744325  22.340378008928568  60.78933145137286  -7.4395553415437625  10.258867428277856  120.000000
9.519056179775282  0.000000  0.000000  0.000000  -26.583416585537805  14.494823652427064  20.768517324629933  63.59197126260122  11.24843284509717  17.112954958657436  22.64756700071852  60.4114087580049  -7.43277276002757  10.224532034270934  120.000000
9.559220973782772  0.000000  0.000000  0.000000  -26.466580697103264  14.372997604026375  20.670810944024947  63.53195352616053  11.26709383105648  16.9507023074108  23.04795858651923  59.80495261592419  -7.365803918896657  10.181711033208154  120.000000
9.599385767790261  0.000000  0.000000  0.000000  -26.268672967219395  14.222693767130554  20.46804282669348  63.48772241478163  11.262267523468132  16.731920281912785  23.538634209775914  58.959337128920566  -7.2358219070569705  10.127198540927088  120.000000
9.639550561797753  0.000000  0.000000  0.000000  -25.991350009483376  14.044226731826972  20.153003681505968  63.45663190865717  11.2308074133574  16.452905685692993  24.114280297473115  57.86481847494178  -7.037692183994382  10.059528762091055  120.000000
9.679715355805243  0.000000  0.000000  0.000000  -25.639367168874234  13.837492038812773  19.718331158268473  63.43413568983003  11.170108330623071  16.11095502083085  24.767128587033046  56.513125317735174  -6.764009189434471  9.980494980210775  120.000000
9.719880149812735  0.000000  0.000000  0.000000  -25.221220399640156  13.602112844312057  19.15725434933726  63.41351147822216  11.078452673707096  15.704933416969524  25.486461216561196  54.898403965564206  -6.4048858309967365  9.896146437595307  120.000000
9.760044943820224  0.000000  0.000000  0.000000  -24.749775635865657  13.337423483930985  18.464859905773718  63.3854685668649  10.955527932836848  15.235773326270262  26.257715171494375  53.01860331334162  -5.947549419345924  9.816784996493677  120.000000
9.800209737827716  0.000000  0.000000  0.000000  -24.24247570330624  13.04263048541145  17.639644962944583  63.3382005280414  10.80278499096233  14.707147106974539  27.061973418159607  50.876903091210444  -5.375971337002853  9.75624672580155  120.000000
9.840374531835206  0.000000  0.000000  0.000000  -23.720016256917464  12.717034685298199  16.68471896758738  63.258694262476254  10.62370937696544  14.12599618659336  27.876508097496437  48.48297741964282  -4.671162150168812  9.73094904379158  120.000000
9.880539325842697  0.000000  0.000000  0.000000  -23.204108530703657  12.360026717927271  15.608547770753113  63.134964923301986  10.423857518296568  13.503014572743513  28.675783240583264  45.8536712479379  -3.811883035252248  9.758891735036348  120.000000
